<?xml version="1.0" encoding="utf-8"?>
<!-- Generator: Adobe Illustrator 23.0.1, SVG Export Plug-In . SVG Version: 6.00 Build 0)  -->
<svg version="1.1" id="Layer_1" xmlns="http://www.w3.org/2000/svg" xmlns:xlink="http://www.w3.org/1999/xlink" x="0px" y="0px"
	 viewBox="0 0 179 179" style="enable-background:new 0 0 179 179;" xml:space="preserve">
<style type="text/css">
	.st0{fill:#2B2B2B;stroke:#2B2B2B;stroke-width:7;stroke-miterlimit:10;}
	.st1{fill:#F6F6F6;stroke:#F6F6F6;stroke-miterlimit:10;}
</style>
<g>
	<circle class="st0" cx="91.6" cy="86.6" r="74.4"/>
	<g>
		<g>
			<g>
				<path class="st1" d="M52.1,71.7c1.6,3.3,3.6,5.2,5.8,6.9c0.4,0.3,0.6,0.7,0.6,1.1s-0.1,0.8-0.4,1.1c-0.3,0.4-0.8,0.7-1.3,0.7
					c-0.3,0-0.7-0.1-1-0.4c-1.8-1.7-3.5-3.7-4.8-6.1c-1.3,3.4-3.6,6.1-7,8.3c-0.3,0.2-0.6,0.3-1,0.3c-0.4,0-0.9-0.2-1.2-0.7
					c-0.3-0.3-0.4-0.7-0.4-1.1c0-0.4,0.2-0.9,0.7-1.1c3.9-2.6,5.8-5.1,6.8-8.9h-6.6c-0.8,0-1.2-0.6-1.2-1.4c0-0.8,0.4-1.4,1.2-1.4
					h7.1c0.2-1.6,0.3-3.3,0.3-4.9h-3.5c-0.6,0.9-1.2,1.8-1.9,2.7c-0.3,0.3-0.7,0.5-1,0.5c-0.4,0-0.8-0.1-1.1-0.4
					c-0.3-0.3-0.5-0.7-0.5-1c0-0.3,0.2-0.7,0.5-1c1.5-1.6,2.7-3.7,3.5-6.2c0.3-0.6,0.7-0.8,1.3-0.8c0.2,0,0.4,0,0.6,0
					c0.7,0.2,1.1,0.6,1.1,1.1c0,0.1,0,0.3-0.1,0.4c-0.3,0.7-0.6,1.4-0.9,2h9.7c0.7,0,1.1,0.5,1.1,1.3c0,0.8-0.4,1.4-1.1,1.4h-4.7
					c0,1.7-0.1,3.3-0.3,4.9h5.6c0.7,0,1.2,0.6,1.2,1.4c0,0.8-0.4,1.4-1.2,1.4H52.1z M46.7,53.2c0,1.3,0.3,1.6,3.7,1.6
					c4.1,0,4.7-0.3,5.1-0.8c0.3-0.5,0.4-1.2,0.5-2.1c0.1-0.8,0.5-1.1,1.3-1.1c0.1,0,0.2,0,0.3,0c0.8,0.1,1.3,0.5,1.3,1.3
					c0,0,0,0,0,0.1c-0.1,1.6-0.5,3-1,3.7c-0.8,1.3-1.9,1.8-7.5,1.8c-5.5,0-6.7-0.9-6.7-3.6v-9c0-0.7,0.7-1.1,1.5-1.1
					c1,0,1.5,0.4,1.5,1.1v3.2c3.7-0.8,6.9-2,9.2-3.2c0.3-0.1,0.5-0.2,0.8-0.2c0.5,0,1,0.3,1.3,0.8c0.2,0.3,0.3,0.6,0.3,0.9
					c0,0.5-0.3,1-0.9,1.2c-2.8,1.3-6.6,2.4-10.6,3.3V53.2z M75.6,47.3c2.5,0,3.7,0.9,3.7,3.4v3h1.8c0.7,0,1.1,0.5,1.1,1.3
					c0,0.9-0.4,1.3-1.1,1.3h-1.8v3.1c0,2.4-1.2,3.4-3.7,3.4h-4.7v4.1h7.9c0.7,0,1.1,0.6,1.1,1.3c0,0.8-0.4,1.4-1.1,1.4h-7.9v4.2h9.5
					c0.7,0,1.1,0.6,1.1,1.4c0,0.9-0.4,1.4-1.1,1.4h-9.5v6.6c0,0.8-0.6,1.2-1.6,1.2c-0.9,0-1.5-0.4-1.5-1.2v-6.6h-8.3
					c-0.7,0-1.1-0.5-1.1-1.4c0-0.8,0.4-1.4,1.1-1.4h8.3v-4.2h-6.7c-0.7,0-1.2-0.6-1.2-1.4c0-0.8,0.4-1.3,1.2-1.3h6.7v-4.1h-6.5
					c-0.7,0-1.1-0.5-1.1-1.3c0-0.7,0.4-1.3,1.1-1.3h6.5v-3.8h-7.4c-0.7,0-1.1-0.5-1.1-1.3c0-0.7,0.3-1.3,1-1.3h7.4V50h-6.4
					c-0.7,0-1.1-0.6-1.1-1.4c0-0.8,0.4-1.3,1.1-1.3h6.4v-2.9c0-0.8,0.6-1.2,1.5-1.2c1,0,1.6,0.4,1.6,1.2v2.9H75.6z M70.9,53.7h5.4
					v-2.4c0-1-0.3-1.2-1.3-1.2h-4.1V53.7z M75,60.2c1,0,1.3-0.3,1.3-1.2v-2.6h-5.4v3.8H75z"/>
			</g>
			<g>
				<path class="st1" d="M105,83.7c-0.3,0.1-0.6,0.2-0.8,0.2c-0.7,0-1.3-0.3-1.6-1.1c-0.2-0.3-0.2-0.6-0.2-0.8c0-0.7,0.4-1.2,1-1.4
					c5.9-2,10.8-5.5,13.5-10.4c2-3.6,2.9-7.3,2.9-12.5c0-1,0.7-1.4,1.7-1.4c1,0,1.7,0.5,1.7,1.4c0,5.3,1,8.8,2.9,12.1
					c2.9,5,8.4,8.4,14.7,10.6c0.7,0.3,1.1,0.9,1.1,1.6c0,0.3,0,0.5-0.2,0.8c-0.3,0.8-1,1.2-1.7,1.2c-0.2,0-0.4,0-0.7-0.1
					c-7.8-2.7-16.3-8.3-17.8-17.8C119.8,75.5,112.8,81,105,83.7z M114.2,53.9c-1.9,3.7-4.2,7-6.7,9.6c-0.4,0.4-0.9,0.6-1.3,0.6
					c-0.5,0-1-0.2-1.3-0.6c-0.3-0.3-0.5-0.8-0.5-1.2c0-0.5,0.2-1,0.6-1.3c4.3-4,7.6-10.1,9.2-16c0.3-0.8,0.8-1.1,1.5-1.1
					c0.2,0,0.4,0,0.7,0.1c0.8,0.2,1.3,0.7,1.3,1.3c0,0.2,0,0.4-0.1,0.6c-0.5,1.6-1.1,3.3-1.8,4.8h20.5c2.3,0,3.6,1.1,3.6,2.8
					c0,0.6-0.2,1.3-0.6,2.1c-1.4,2.7-3.7,5.4-6.2,7.6c-0.4,0.3-0.9,0.6-1.3,0.6c-0.4,0-0.8-0.2-1.2-0.5c-0.4-0.4-0.6-0.8-0.6-1.3
					c0-0.4,0.2-0.9,0.6-1.1c2-1.5,4.2-3.9,5.2-5.8c0.1-0.3,0.2-0.5,0.2-0.7c0-0.3-0.3-0.5-0.9-0.5H114.2z"/>
			</g>
		</g>
		<g>
			<path class="st1" d="M56.1,97.3c1.2,19.1,14.9,38.2,35.5,38.2c20.7,0,34.3-19.1,35.5-38.2c0.1-2.3-3.4-2.3-3.6,0
				c-1.1,17.2-13.3,34.6-32,34.6c-18.6,0-30.9-17.4-32-34.6C59.5,95,55.9,95,56.1,97.3L56.1,97.3z"/>
		</g>
	</g>
</g>
</svg>
